<svg xmlns="http://www.w3.org/2000/svg" width="760" height="500" viewBox="0 0 760 500">
<rect width="100%" height="100%" fill="#ffffff"/>
<text x="380" y="38" text-anchor="middle" font-family="Arial" font-size="24" font-weight="700">Petal Length vs Petal Width</text>
<line x1="90" y1="70" x2="90" y2="410" stroke="#333"/>
<line x1="90" y1="410" x2="680" y2="410" stroke="#333"/>
<text x="385" y="470" text-anchor="middle" font-family="Arial" font-size="16">Petal length</text>
<text x="24" y="250" text-anchor="middle" font-family="Arial" font-size="16" transform="rotate(-90 24 250)">Petal width</text>
<circle cx="130.0" cy="395.8" r="4" fill="#2f7d32" opacity="0.82"/>
<circle cx="130.0" cy="395.8" r="4" fill="#2f7d32" opacity="0.82"/>
<circle cx="120.0" cy="395.8" r="4" fill="#2f7d32" opacity="0.82"/>
<circle cx="140.0" cy="395.8" r="4" fill="#2f7d32" opacity="0.82"/>
<circle cx="130.0" cy="395.8" r="4" fill="#2f7d32" opacity="0.82"/>
<circle cx="160.0" cy="367.5" r="4" fill="#2f7d32" opacity="0.82"/>
<circle cx="130.0" cy="381.7" r="4" fill="#2f7d32" opacity="0.82"/>
<circle cx="140.0" cy="395.8" r="4" fill="#2f7d32" opacity="0.82"/>
<circle cx="130.0" cy="395.8" r="4" fill="#2f7d32" opacity="0.82"/>
<circle cx="140.0" cy="410.0" r="4" fill="#2f7d32" opacity="0.82"/>
<circle cx="140.0" cy="395.8" r="4" fill="#2f7d32" opacity="0.82"/>
<circle cx="150.0" cy="395.8" r="4" fill="#2f7d32" opacity="0.82"/>
<circle cx="130.0" cy="410.0" r="4" fill="#2f7d32" opacity="0.82"/>
<circle cx="100.0" cy="410.0" r="4" fill="#2f7d32" opacity="0.82"/>
<circle cx="110.0" cy="395.8" r="4" fill="#2f7d32" opacity="0.82"/>
<circle cx="140.0" cy="367.5" r="4" fill="#2f7d32" opacity="0.82"/>
<circle cx="120.0" cy="367.5" r="4" fill="#2f7d32" opacity="0.82"/>
<circle cx="130.0" cy="381.7" r="4" fill="#2f7d32" opacity="0.82"/>
<circle cx="160.0" cy="381.7" r="4" fill="#2f7d32" opacity="0.82"/>
<circle cx="140.0" cy="381.7" r="4" fill="#2f7d32" opacity="0.82"/>
<circle cx="160.0" cy="395.8" r="4" fill="#2f7d32" opacity="0.82"/>
<circle cx="140.0" cy="367.5" r="4" fill="#2f7d32" opacity="0.82"/>
<circle cx="90.0" cy="395.8" r="4" fill="#2f7d32" opacity="0.82"/>
<circle cx="160.0" cy="353.3" r="4" fill="#2f7d32" opacity="0.82"/>
<circle cx="180.0" cy="395.8" r="4" fill="#2f7d32" opacity="0.82"/>
<circle cx="150.0" cy="395.8" r="4" fill="#2f7d32" opacity="0.82"/>
<circle cx="150.0" cy="367.5" r="4" fill="#2f7d32" opacity="0.82"/>
<circle cx="140.0" cy="395.8" r="4" fill="#2f7d32" opacity="0.82"/>
<circle cx="130.0" cy="395.8" r="4" fill="#2f7d32" opacity="0.82"/>
<circle cx="150.0" cy="395.8" r="4" fill="#2f7d32" opacity="0.82"/>
<circle cx="150.0" cy="395.8" r="4" fill="#2f7d32" opacity="0.82"/>
<circle cx="140.0" cy="367.5" r="4" fill="#2f7d32" opacity="0.82"/>
<circle cx="140.0" cy="410.0" r="4" fill="#2f7d32" opacity="0.82"/>
<circle cx="130.0" cy="395.8" r="4" fill="#2f7d32" opacity="0.82"/>
<circle cx="140.0" cy="395.8" r="4" fill="#2f7d32" opacity="0.82"/>
<circle cx="110.0" cy="395.8" r="4" fill="#2f7d32" opacity="0.82"/>
<circle cx="120.0" cy="395.8" r="4" fill="#2f7d32" opacity="0.82"/>
<circle cx="130.0" cy="410.0" r="4" fill="#2f7d32" opacity="0.82"/>
<circle cx="120.0" cy="395.8" r="4" fill="#2f7d32" opacity="0.82"/>
<circle cx="140.0" cy="395.8" r="4" fill="#2f7d32" opacity="0.82"/>
<circle cx="120.0" cy="381.7" r="4" fill="#2f7d32" opacity="0.82"/>
<circle cx="120.0" cy="381.7" r="4" fill="#2f7d32" opacity="0.82"/>
<circle cx="120.0" cy="395.8" r="4" fill="#2f7d32" opacity="0.82"/>
<circle cx="150.0" cy="339.2" r="4" fill="#2f7d32" opacity="0.82"/>
<circle cx="180.0" cy="367.5" r="4" fill="#2f7d32" opacity="0.82"/>
<circle cx="130.0" cy="381.7" r="4" fill="#2f7d32" opacity="0.82"/>
<circle cx="150.0" cy="395.8" r="4" fill="#2f7d32" opacity="0.82"/>
<circle cx="130.0" cy="395.8" r="4" fill="#2f7d32" opacity="0.82"/>
<circle cx="140.0" cy="395.8" r="4" fill="#2f7d32" opacity="0.82"/>
<circle cx="130.0" cy="395.8" r="4" fill="#2f7d32" opacity="0.82"/>
<circle cx="460.0" cy="225.8" r="4" fill="#1565c0" opacity="0.82"/>
<circle cx="440.0" cy="211.7" r="4" fill="#1565c0" opacity="0.82"/>
<circle cx="480.0" cy="211.7" r="4" fill="#1565c0" opacity="0.82"/>
<circle cx="390.0" cy="240.0" r="4" fill="#1565c0" opacity="0.82"/>
<circle cx="450.0" cy="211.7" r="4" fill="#1565c0" opacity="0.82"/>
<circle cx="440.0" cy="240.0" r="4" fill="#1565c0" opacity="0.82"/>
<circle cx="460.0" cy="197.5" r="4" fill="#1565c0" opacity="0.82"/>
<circle cx="320.0" cy="282.5" r="4" fill="#1565c0" opacity="0.82"/>
<circle cx="450.0" cy="240.0" r="4" fill="#1565c0" opacity="0.82"/>
<circle cx="380.0" cy="225.8" r="4" fill="#1565c0" opacity="0.82"/>
<circle cx="340.0" cy="282.5" r="4" fill="#1565c0" opacity="0.82"/>
<circle cx="410.0" cy="211.7" r="4" fill="#1565c0" opacity="0.82"/>
<circle cx="390.0" cy="282.5" r="4" fill="#1565c0" opacity="0.82"/>
<circle cx="460.0" cy="225.8" r="4" fill="#1565c0" opacity="0.82"/>
<circle cx="350.0" cy="240.0" r="4" fill="#1565c0" opacity="0.82"/>
<circle cx="430.0" cy="225.8" r="4" fill="#1565c0" opacity="0.82"/>
<circle cx="440.0" cy="211.7" r="4" fill="#1565c0" opacity="0.82"/>
<circle cx="400.0" cy="282.5" r="4" fill="#1565c0" opacity="0.82"/>
<circle cx="440.0" cy="211.7" r="4" fill="#1565c0" opacity="0.82"/>
<circle cx="380.0" cy="268.3" r="4" fill="#1565c0" opacity="0.82"/>
<circle cx="470.0" cy="169.2" r="4" fill="#1565c0" opacity="0.82"/>
<circle cx="390.0" cy="240.0" r="4" fill="#1565c0" opacity="0.82"/>
<circle cx="480.0" cy="211.7" r="4" fill="#1565c0" opacity="0.82"/>
<circle cx="460.0" cy="254.2" r="4" fill="#1565c0" opacity="0.82"/>
<circle cx="420.0" cy="240.0" r="4" fill="#1565c0" opacity="0.82"/>
<circle cx="430.0" cy="225.8" r="4" fill="#1565c0" opacity="0.82"/>
<circle cx="470.0" cy="225.8" r="4" fill="#1565c0" opacity="0.82"/>
<circle cx="490.0" cy="183.3" r="4" fill="#1565c0" opacity="0.82"/>
<circle cx="440.0" cy="211.7" r="4" fill="#1565c0" opacity="0.82"/>
<circle cx="340.0" cy="282.5" r="4" fill="#1565c0" opacity="0.82"/>
<circle cx="370.0" cy="268.3" r="4" fill="#1565c0" opacity="0.82"/>
<circle cx="360.0" cy="282.5" r="4" fill="#1565c0" opacity="0.82"/>
<circle cx="380.0" cy="254.2" r="4" fill="#1565c0" opacity="0.82"/>
<circle cx="500.0" cy="197.5" r="4" fill="#1565c0" opacity="0.82"/>
<circle cx="440.0" cy="211.7" r="4" fill="#1565c0" opacity="0.82"/>
<circle cx="440.0" cy="197.5" r="4" fill="#1565c0" opacity="0.82"/>
<circle cx="460.0" cy="211.7" r="4" fill="#1565c0" opacity="0.82"/>
<circle cx="430.0" cy="240.0" r="4" fill="#1565c0" opacity="0.82"/>
<circle cx="400.0" cy="240.0" r="4" fill="#1565c0" opacity="0.82"/>
<circle cx="390.0" cy="240.0" r="4" fill="#1565c0" opacity="0.82"/>
<circle cx="430.0" cy="254.2" r="4" fill="#1565c0" opacity="0.82"/>
<circle cx="450.0" cy="225.8" r="4" fill="#1565c0" opacity="0.82"/>
<circle cx="390.0" cy="254.2" r="4" fill="#1565c0" opacity="0.82"/>
<circle cx="320.0" cy="282.5" r="4" fill="#1565c0" opacity="0.82"/>
<circle cx="410.0" cy="240.0" r="4" fill="#1565c0" opacity="0.82"/>
<circle cx="410.0" cy="254.2" r="4" fill="#1565c0" opacity="0.82"/>
<circle cx="410.0" cy="240.0" r="4" fill="#1565c0" opacity="0.82"/>
<circle cx="420.0" cy="240.0" r="4" fill="#1565c0" opacity="0.82"/>
<circle cx="290.0" cy="268.3" r="4" fill="#1565c0" opacity="0.82"/>
<circle cx="400.0" cy="240.0" r="4" fill="#1565c0" opacity="0.82"/>
<circle cx="590.0" cy="70.0" r="4" fill="#c62828" opacity="0.82"/>
<circle cx="500.0" cy="155.0" r="4" fill="#c62828" opacity="0.82"/>
<circle cx="580.0" cy="126.7" r="4" fill="#c62828" opacity="0.82"/>
<circle cx="550.0" cy="169.2" r="4" fill="#c62828" opacity="0.82"/>
<circle cx="570.0" cy="112.5" r="4" fill="#c62828" opacity="0.82"/>
<circle cx="650.0" cy="126.7" r="4" fill="#c62828" opacity="0.82"/>
<circle cx="440.0" cy="183.3" r="4" fill="#c62828" opacity="0.82"/>
<circle cx="620.0" cy="169.2" r="4" fill="#c62828" opacity="0.82"/>
<circle cx="570.0" cy="169.2" r="4" fill="#c62828" opacity="0.82"/>
<circle cx="600.0" cy="70.0" r="4" fill="#c62828" opacity="0.82"/>
<circle cx="500.0" cy="140.8" r="4" fill="#c62828" opacity="0.82"/>
<circle cx="520.0" cy="155.0" r="4" fill="#c62828" opacity="0.82"/>
<circle cx="540.0" cy="126.7" r="4" fill="#c62828" opacity="0.82"/>
<circle cx="490.0" cy="140.8" r="4" fill="#c62828" opacity="0.82"/>
<circle cx="500.0" cy="84.2" r="4" fill="#c62828" opacity="0.82"/>
<circle cx="520.0" cy="98.3" r="4" fill="#c62828" opacity="0.82"/>
<circle cx="540.0" cy="169.2" r="4" fill="#c62828" opacity="0.82"/>
<circle cx="660.0" cy="112.5" r="4" fill="#c62828" opacity="0.82"/>
<circle cx="680.0" cy="98.3" r="4" fill="#c62828" opacity="0.82"/>
<circle cx="490.0" cy="211.7" r="4" fill="#c62828" opacity="0.82"/>
<circle cx="560.0" cy="98.3" r="4" fill="#c62828" opacity="0.82"/>
<circle cx="480.0" cy="140.8" r="4" fill="#c62828" opacity="0.82"/>
<circle cx="660.0" cy="140.8" r="4" fill="#c62828" opacity="0.82"/>
<circle cx="480.0" cy="169.2" r="4" fill="#c62828" opacity="0.82"/>
<circle cx="560.0" cy="126.7" r="4" fill="#c62828" opacity="0.82"/>
<circle cx="590.0" cy="169.2" r="4" fill="#c62828" opacity="0.82"/>
<circle cx="470.0" cy="169.2" r="4" fill="#c62828" opacity="0.82"/>
<circle cx="480.0" cy="169.2" r="4" fill="#c62828" opacity="0.82"/>
<circle cx="550.0" cy="126.7" r="4" fill="#c62828" opacity="0.82"/>
<circle cx="570.0" cy="197.5" r="4" fill="#c62828" opacity="0.82"/>
<circle cx="600.0" cy="155.0" r="4" fill="#c62828" opacity="0.82"/>
<circle cx="630.0" cy="140.8" r="4" fill="#c62828" opacity="0.82"/>
<circle cx="550.0" cy="112.5" r="4" fill="#c62828" opacity="0.82"/>
<circle cx="500.0" cy="211.7" r="4" fill="#c62828" opacity="0.82"/>
<circle cx="550.0" cy="225.8" r="4" fill="#c62828" opacity="0.82"/>
<circle cx="600.0" cy="98.3" r="4" fill="#c62828" opacity="0.82"/>
<circle cx="550.0" cy="84.2" r="4" fill="#c62828" opacity="0.82"/>
<circle cx="540.0" cy="169.2" r="4" fill="#c62828" opacity="0.82"/>
<circle cx="470.0" cy="169.2" r="4" fill="#c62828" opacity="0.82"/>
<circle cx="530.0" cy="126.7" r="4" fill="#c62828" opacity="0.82"/>
<circle cx="550.0" cy="84.2" r="4" fill="#c62828" opacity="0.82"/>
<circle cx="500.0" cy="98.3" r="4" fill="#c62828" opacity="0.82"/>
<circle cx="500.0" cy="155.0" r="4" fill="#c62828" opacity="0.82"/>
<circle cx="580.0" cy="98.3" r="4" fill="#c62828" opacity="0.82"/>
<circle cx="560.0" cy="70.0" r="4" fill="#c62828" opacity="0.82"/>
<circle cx="510.0" cy="98.3" r="4" fill="#c62828" opacity="0.82"/>
<circle cx="490.0" cy="155.0" r="4" fill="#c62828" opacity="0.82"/>
<circle cx="510.0" cy="140.8" r="4" fill="#c62828" opacity="0.82"/>
<circle cx="530.0" cy="98.3" r="4" fill="#c62828" opacity="0.82"/>
<circle cx="500.0" cy="169.2" r="4" fill="#c62828" opacity="0.82"/>
<circle cx="705" cy="95" r="6" fill="#2f7d32"/>
<text x="718" y="100" font-family="Arial" font-size="14">setosa</text>
<circle cx="705" cy="119" r="6" fill="#1565c0"/>
<text x="718" y="124" font-family="Arial" font-size="14">versicolor</text>
<circle cx="705" cy="143" r="6" fill="#c62828"/>
<text x="718" y="148" font-family="Arial" font-size="14">virginica</text>
</svg>